<svg xmlns="http://www.w3.org/2000/svg" width="920" height="500" viewBox="0 0 920 500">
<rect width="100%" height="100%" fill="#f7f8fa"/>
<text x="460" y="32" text-anchor="middle" font-family="sans-serif" font-size="24" font-weight="700">Plasma window movement delivered to Android</text>
<g font-family="sans-serif" fill="#20242b"><line x1="95" y1="385.0" x2="870" y2="385.0" stroke="#d8dde5" stroke-width="1"/><text x="78" y="391.0" text-anchor="end" font-size="16">0</text><line x1="95" y1="334.2" x2="870" y2="334.2" stroke="#d8dde5" stroke-width="1"/><text x="78" y="340.2" text-anchor="end" font-size="16">10</text><line x1="95" y1="283.5" x2="870" y2="283.5" stroke="#d8dde5" stroke-width="1"/><text x="78" y="289.5" text-anchor="end" font-size="16">20</text><line x1="95" y1="232.7" x2="870" y2="232.7" stroke="#d8dde5" stroke-width="1"/><text x="78" y="238.7" text-anchor="end" font-size="16">30</text><line x1="95" y1="181.9" x2="870" y2="181.9" stroke="#d8dde5" stroke-width="1"/><text x="78" y="187.9" text-anchor="end" font-size="16">40</text><line x1="95" y1="131.2" x2="870" y2="131.2" stroke="#d8dde5" stroke-width="1"/><text x="78" y="137.2" text-anchor="end" font-size="16">50</text><line x1="95" y1="80.4" x2="870" y2="80.4" stroke="#d8dde5" stroke-width="1"/><text x="78" y="86.4" text-anchor="end" font-size="16">60</text><rect x="190" y="319.8" width="115" height="65.2" fill="#4472c4" rx="4"/><line x1="247" y1="317.4" x2="247" y2="322.5" stroke="#20242b" stroke-width="3"/><line x1="232" y1="317.4" x2="262" y2="317.4" stroke="#20242b" stroke-width="3"/><line x1="232" y1="322.5" x2="262" y2="322.5" stroke="#20242b" stroke-width="3"/><text x="247" y="307.8" text-anchor="middle" font-size="22" font-weight="700">12.84</text><text x="247" y="419" text-anchor="middle" font-size="18">Stable sync</text><rect x="435" y="313.2" width="115" height="71.8" fill="#70ad47" rx="4"/><line x1="492" y1="298.7" x2="492" y2="329.8" stroke="#20242b" stroke-width="3"/><line x1="477" y1="298.7" x2="507" y2="298.7" stroke="#20242b" stroke-width="3"/><line x1="477" y1="329.8" x2="507" y2="329.8" stroke="#20242b" stroke-width="3"/><text x="492" y="301.2" text-anchor="middle" font-size="22" font-weight="700">14.15</text><text x="492" y="419" text-anchor="middle" font-size="18">CPU batchsync</text><rect x="680" y="72.9" width="115" height="312.1" fill="#ed7d31" rx="4"/><line x1="737" y1="67.7" x2="737" y2="171.3" stroke="#20242b" stroke-width="3"/><line x1="722" y1="67.7" x2="752" y2="67.7" stroke="#20242b" stroke-width="3"/><line x1="722" y1="171.3" x2="752" y2="171.3" stroke="#20242b" stroke-width="3"/><text x="737" y="60.9" text-anchor="middle" font-size="22" font-weight="700">61.47</text><text x="737" y="419" text-anchor="middle" font-size="18">No compositor</text>
<text x="25" y="230" transform="rotate(-90 25 230)" text-anchor="middle" font-size="18">Displayed FPS</text>
<text x="460" y="466" text-anchor="middle" font-size="16">Median of five runs; whiskers show min-max. DRI3 candidates crashed KWin with SIGBUS.</text>
</g></svg>